<svg xmlns="http://www.w3.org/2000/svg" viewBox="0 0 256 2000"><path d="M156 59H189V-8H156ZM47 -8H10L18 -16Q27 -13 38 -13H245L227 6L211 -8H203V53L212 60L195 74L187 64H62L46 74Q47 54 47 -8ZM61 59H95V-8H61ZM108 59H143V-8H108ZM130 160 120 166Q121 152 121 140H17L25 132Q34 135 45 135H121V103Q121 94 115.0 94.0Q109 94 82 96V92Q114 83 113 69Q137 76 135 98V135H241L221 155L205 140H135V147L143 152L135 157Q158 170 174.0 176.5Q190 183 200 182L183 202L172 192H47L55 184Q64 187 75 187H172Z" stroke="red" fill="none" /></svg>